<svg width="80" height="80" viewBox="0 0 80 80" fill="none" xmlns="http://www.w3.org/2000/svg">
  <circle cx="40" cy="40" r="40" fill="#3C82F9"/>
  <path d="M49.3125 37.5938H42.2812V30.5625C42.2812 29.6997 41.5815 29 40.7188 29H39.1562C38.2935 29 37.5938 29.6997 37.5938 30.5625V37.5938H30.5625C29.6997 37.5938 29 38.2935 29 39.1562V40.7188C29 41.5815 29.6997 42.2812 30.5625 42.2812H37.5938V49.3125C37.5938 50.1753 38.2935 50.875 39.1562 50.875H40.7188C41.5815 50.875 42.2812 50.1753 42.2812 49.3125V42.2812H49.3125C50.1753 42.2812 50.875 41.5815 50.875 40.7188V39.1562C50.875 38.2935 50.1753 37.5938 49.3125 37.5938Z" fill="white"/>
</svg>