<svg width="37" height="37" viewBox="0 0 37 37" fill="none" xmlns="http://www.w3.org/2000/svg">
<path d="M18.5 0C8.28304 0 0 8.28304 0 18.5C0 28.717 8.28304 37 18.5 37C28.717 37 37 28.717 37 18.5C37 8.28304 28.717 0 18.5 0ZM18.5 35.2485C9.26825 35.2485 1.75148 27.7318 1.75148 18.5C1.75148 9.26825 9.26825 1.75148 18.5 1.75148C27.7318 1.75148 35.2485 9.26825 35.2485 18.5C35.2485 27.7318 27.7318 35.2485 18.5 35.2485Z" fill="black"/>
<path d="M19.3757 18.1352V7.91822C19.3757 7.44386 18.9744 7.04248 18.5 7.04248C18.0256 7.04248 17.6243 7.44386 17.6243 7.91822V18.5001C17.6243 18.719 17.7337 18.9744 17.8797 19.1204L24.9221 26.1628C25.1045 26.3452 25.3235 26.4182 25.5424 26.4182C25.7614 26.4182 25.9803 26.3452 26.1627 26.1628C26.4911 25.8344 26.4911 25.2506 26.1627 24.9222L19.3757 18.1352Z" fill="black"/>
</svg> 